<?xml version="1.0" encoding="utf-8"?>
<!-- Generator: Adobe Illustrator 24.2.0, SVG Export Plug-In . SVG Version: 6.00 Build 0)  -->
<svg version="1.1" id="Layer_1" xmlns="http://www.w3.org/2000/svg" xmlns:xlink="http://www.w3.org/1999/xlink" x="0px" y="0px"
	 viewBox="0 0 498 554" style="enable-background:new 0 0 498 554;" xml:space="preserve">
<style type="text/css">
	.st0{fill:#FEC8D0;}
	.st1{font-family:'Poppins-Medium';}
	.st2{font-size:19.8452px;}
	.st3{fill:#FFFFFF;}
	.st4{fill:#DDD600;}
	.st5{font-size:25.0929px;}
	.st6{fill:#3776FF;}
	.st7{fill:#FF652C;}
	.st8{fill:#FF4DD3;}
</style>
<g>
	
		<image style="overflow:visible;opacity:0.75;" width="440" height="461" xlink:href="432BEA8C.png"  transform="matrix(1 0 0 1 33 37)">
	</image>
	<g>
		<g>
			
				<rect x="44.6" y="78.7" transform="matrix(0.9804 -0.1972 0.1972 0.9804 -18.042 44.8199)" class="st0" width="342.9" height="68.6"/>
			<text transform="matrix(0.786 -0.1581 0.1972 0.9804 61.1944 149.5424)" class="st1 st2">Compare with Others</text>
			
				<rect x="81" y="143.3" transform="matrix(0.9804 -0.1972 0.1972 0.9804 -53.0232 55.5558)" class="st3" width="342.9" height="301.4"/>
			<g>
				<path d="M145.8,229.1l-6.7-5.6l1.3,6.7l-2.3,0.5l-3-15l2.3-0.5l1.4,6.8l4-7.9l2.9-0.6l-4.5,8.7l7.6,6.2L145.8,229.1z"/>
				<path d="M159.8,221.1l-8.4,1.7c0.3,0.9,0.7,1.6,1.4,2.1c0.7,0.5,1.5,0.6,2.3,0.4c1.2-0.2,2-1,2.3-2.2l2.5-0.5
					c-0.1,1.2-0.5,2.2-1.3,3c-0.7,0.9-1.7,1.4-3,1.7c-1.1,0.2-2,0.1-3-0.2c-0.9-0.3-1.7-0.9-2.4-1.8c-0.7-0.8-1.1-1.9-1.4-3.1
					c-0.2-1.2-0.2-2.3,0-3.4c0.3-1,0.8-1.9,1.5-2.5c0.7-0.7,1.6-1.1,2.7-1.3c1-0.2,2-0.2,2.9,0.2c0.9,0.3,1.7,0.9,2.3,1.7
					c0.6,0.8,1.1,1.8,1.3,2.9C159.7,220.3,159.8,220.7,159.8,221.1z M157.1,219.6c-0.2-0.9-0.6-1.6-1.3-2c-0.7-0.4-1.5-0.6-2.3-0.4
					c-0.8,0.2-1.4,0.6-1.9,1.2c-0.5,0.7-0.6,1.4-0.6,2.4L157.1,219.6z"/>
				<path d="M164.7,225c-0.8-0.2-1.4-0.5-1.9-1.1c-0.5-0.5-0.9-1.1-1-1.8l2.4-0.5c0.1,0.5,0.4,0.9,0.9,1.1c0.5,0.3,1,0.3,1.6,0.2
					c0.6-0.1,1.1-0.4,1.4-0.7c0.3-0.3,0.4-0.7,0.3-1.1c-0.1-0.4-0.4-0.7-0.8-0.9c-0.4-0.1-1.1-0.2-2-0.3c-0.9-0.1-1.6-0.2-2.2-0.3
					c-0.6-0.1-1.1-0.4-1.6-0.8c-0.5-0.4-0.8-1-0.9-1.8c-0.1-0.6-0.1-1.2,0.2-1.8c0.2-0.6,0.7-1.1,1.2-1.5c0.6-0.4,1.3-0.7,2.1-0.9
					c1.3-0.3,2.3-0.1,3.2,0.4c0.9,0.5,1.5,1.4,1.8,2.5l-2.3,0.5c-0.1-0.5-0.4-0.9-0.9-1.2c-0.4-0.2-0.9-0.3-1.6-0.2
					c-0.6,0.1-1,0.3-1.3,0.6c-0.3,0.3-0.4,0.7-0.3,1.1c0.1,0.3,0.2,0.6,0.5,0.7c0.3,0.2,0.6,0.3,0.9,0.3c0.3,0.1,0.8,0.1,1.5,0.2
					c0.8,0.1,1.6,0.2,2.1,0.3c0.6,0.1,1.1,0.4,1.5,0.8c0.5,0.4,0.8,1,0.9,1.7c0.1,0.7,0.1,1.3-0.2,1.9c-0.2,0.6-0.6,1.1-1.2,1.5
					c-0.6,0.4-1.3,0.7-2.1,0.9C166.3,225.2,165.5,225.2,164.7,225z"/>
				<path d="M179.5,210.4c0.7,0.3,1.4,0.7,1.9,1.4c0.5,0.7,0.9,1.6,1.1,2.6l1.4,7l-2.3,0.5l-1.3-6.6c-0.2-1.1-0.6-1.8-1.2-2.3
					c-0.6-0.5-1.3-0.6-2.2-0.4c-0.9,0.2-1.5,0.6-1.9,1.3c-0.4,0.7-0.5,1.5-0.3,2.6l1.3,6.6l-2.3,0.5l-3.2-15.9l2.3-0.5l1.1,5.4
					c0.3-0.6,0.7-1.1,1.2-1.5c0.5-0.4,1.2-0.7,1.9-0.8C177.9,210.1,178.7,210.1,179.5,210.4z"/>
				<path d="M184.9,211.7c0.3-1,0.8-1.9,1.4-2.5c0.7-0.7,1.5-1.1,2.5-1.3c0.9-0.2,1.7-0.1,2.4,0.1c0.7,0.2,1.3,0.6,1.8,1.1l-0.3-1.7
					l2.3-0.5l2.4,11.9l-2.3,0.5l-0.4-1.8c-0.3,0.6-0.7,1.2-1.3,1.7c-0.6,0.5-1.3,0.8-2.2,1c-0.9,0.2-1.9,0.1-2.8-0.3
					c-0.9-0.4-1.7-1-2.3-1.8c-0.6-0.8-1.1-1.9-1.3-3.1C184.6,213.8,184.6,212.7,184.9,211.7z M193,211.2c-0.4-0.5-0.9-0.9-1.5-1.1
					c-0.6-0.2-1.1-0.3-1.7-0.1c-0.6,0.1-1.1,0.4-1.5,0.8c-0.4,0.4-0.8,0.9-1,1.6c-0.2,0.7-0.2,1.4,0,2.2c0.2,0.8,0.5,1.5,0.9,2.1
					c0.4,0.6,0.9,0.9,1.5,1.2c0.6,0.2,1.2,0.3,1.7,0.2c0.6-0.1,1.1-0.4,1.5-0.8c0.4-0.4,0.8-1,1-1.6c0.2-0.7,0.2-1.4,0-2.2
					C193.7,212.4,193.4,211.8,193,211.2z"/>
				<path d="M204.2,215.1l1.2-10.3l2.4-0.5L206,217l-2.7,0.5l-6.6-11l2.4-0.5L204.2,215.1z"/>
				<path d="M223.1,198l0.4,2l-3.7,0.7l2.6,13l-2.3,0.5l-2.6-13l-3.7,0.7l-0.4-2L223.1,198z"/>
				<path d="M234,199.4c0.7,0.3,1.4,0.7,1.9,1.4c0.5,0.7,0.9,1.6,1.1,2.6l1.4,7l-2.3,0.5l-1.3-6.6c-0.2-1.1-0.6-1.8-1.2-2.3
					c-0.6-0.5-1.3-0.6-2.2-0.4c-0.9,0.2-1.5,0.6-1.9,1.3c-0.4,0.7-0.5,1.5-0.3,2.6l1.3,6.6l-2.3,0.5l-3.2-15.9l2.3-0.5l1.1,5.4
					c0.3-0.6,0.7-1.1,1.2-1.5c0.5-0.4,1.2-0.7,1.9-0.8C232.5,199.1,233.3,199.2,234,199.4z"/>
				<path d="M239.4,200.8c0.3-1,0.8-1.9,1.4-2.5c0.7-0.7,1.5-1.1,2.5-1.3c0.9-0.2,1.7-0.1,2.4,0.1c0.7,0.2,1.3,0.6,1.8,1.1l-0.3-1.7
					l2.3-0.5l2.4,11.9l-2.3,0.5l-0.4-1.8c-0.3,0.6-0.7,1.2-1.3,1.7c-0.6,0.5-1.3,0.8-2.2,1c-0.9,0.2-1.9,0.1-2.8-0.3
					c-0.9-0.4-1.7-1-2.3-1.8c-0.6-0.8-1.1-1.9-1.3-3.1S239.2,201.8,239.4,200.8z M247.5,200.3c-0.4-0.5-0.9-0.9-1.5-1.1
					c-0.6-0.2-1.1-0.3-1.7-0.1c-0.6,0.1-1.1,0.4-1.5,0.8c-0.4,0.4-0.8,0.9-1,1.6c-0.2,0.7-0.2,1.4,0,2.2c0.2,0.8,0.5,1.5,0.9,2.1
					c0.4,0.6,0.9,0.9,1.5,1.2c0.6,0.2,1.2,0.3,1.7,0.2c0.6-0.1,1.1-0.4,1.5-0.8c0.4-0.4,0.8-1,1-1.6c0.2-0.7,0.2-1.4,0-2.2
					C248.3,201.5,248,200.8,247.5,200.3z"/>
				<path d="M254,190.8l3.2,15.9l-2.3,0.5l-3.2-15.9L254,190.8z"/>
				<path d="M272.6,191.3l-1,12.6l-2.4,0.5l-4-8.3l-0.5,9.2l-2.4,0.5l-5.8-11.2l2.3-0.5l4.2,9.1l0.4-10l2.4-0.5l4.2,9l0.4-10
					L272.6,191.3z"/>
				<path d="M274.8,193.6c0.3-1,0.8-1.9,1.4-2.5c0.7-0.7,1.5-1.1,2.5-1.3c0.9-0.2,1.7-0.1,2.4,0.1c0.7,0.2,1.3,0.6,1.8,1.1l-0.3-1.7
					l2.3-0.5l2.4,11.9l-2.3,0.5l-0.4-1.8c-0.3,0.6-0.7,1.2-1.3,1.7c-0.6,0.5-1.3,0.8-2.2,1c-0.9,0.2-1.9,0.1-2.8-0.3
					c-0.9-0.4-1.7-1-2.3-1.8c-0.6-0.8-1.1-1.9-1.3-3.1C274.5,195.8,274.5,194.7,274.8,193.6z M282.9,193.1c-0.4-0.5-0.9-0.9-1.5-1.1
					c-0.6-0.2-1.1-0.3-1.7-0.1s-1.1,0.4-1.5,0.8c-0.4,0.4-0.8,0.9-1,1.6c-0.2,0.7-0.2,1.4,0,2.2c0.2,0.8,0.5,1.5,0.9,2.1
					c0.4,0.6,0.9,0.9,1.5,1.2c0.6,0.2,1.2,0.3,1.7,0.2c0.6-0.1,1.1-0.4,1.5-0.8c0.4-0.4,0.8-1,1-1.6c0.2-0.7,0.2-1.4,0-2.2
					S283.3,193.7,282.9,193.1z"/>
				<path d="M289.3,183.7l3.2,15.9l-2.3,0.5l-3.2-15.9L289.3,183.7z"/>
				<g>
					
						<ellipse transform="matrix(0.9804 -0.1972 0.1972 0.9804 -42.9968 25.9373)" class="st4" cx="108.7" cy="228.8" rx="21.9" ry="23.5"/>
					<text transform="matrix(0.9106 -0.1832 0.1972 0.9804 96.6437 239.5237)" class="st1 st5">KT</text>
				</g>
			</g>
			<g>
				<path d="M157.3,282.8l-5.8,1.2l-0.4,3.3l-2.4,0.5l2-16l2.6-0.5l8,14l-2.4,0.5L157.3,282.8z M156.3,280.9l-3.7-6.5l-0.9,7.4
					L156.3,280.9z"/>
				<path d="M171,270.9l-3.3,18.8l-2.4,0.5l1.1-6.2l-6.7-10.8l2.5-0.5l4.9,8.4l1.4-9.7L171,270.9z"/>
				<path d="M182.7,268.5l2.4,11.9l-2.3,0.5l-0.3-1.4c-0.3,0.6-0.7,1-1.2,1.4c-0.5,0.4-1.1,0.7-1.8,0.8c-0.9,0.2-1.7,0.1-2.4-0.1
					c-0.8-0.2-1.4-0.7-2-1.4c-0.5-0.7-0.9-1.6-1.1-2.6l-1.4-7l2.3-0.5l1.3,6.6c0.2,1.1,0.6,1.8,1.2,2.3c0.6,0.5,1.3,0.6,2.2,0.4
					c0.9-0.2,1.5-0.6,1.9-1.3c0.4-0.7,0.5-1.5,0.3-2.6l-1.3-6.6L182.7,268.5z"/>
				<path d="M189.7,279.1c-0.8-0.2-1.4-0.5-1.9-1.1c-0.5-0.5-0.9-1.1-1-1.8l2.4-0.5c0.1,0.5,0.4,0.9,0.9,1.1c0.5,0.3,1,0.3,1.6,0.2
					c0.6-0.1,1.1-0.4,1.4-0.7c0.3-0.3,0.4-0.7,0.3-1.1c-0.1-0.4-0.4-0.7-0.8-0.9c-0.4-0.1-1.1-0.2-2-0.3c-0.9-0.1-1.6-0.2-2.2-0.3
					c-0.6-0.1-1.1-0.4-1.6-0.8c-0.5-0.4-0.8-1-0.9-1.8c-0.1-0.6-0.1-1.2,0.2-1.8c0.2-0.6,0.7-1.1,1.2-1.5c0.6-0.4,1.3-0.7,2.1-0.9
					c1.3-0.3,2.3-0.1,3.2,0.4c0.9,0.5,1.5,1.4,1.8,2.5l-2.3,0.5c-0.1-0.5-0.4-0.9-0.9-1.2c-0.4-0.2-0.9-0.3-1.6-0.2
					c-0.6,0.1-1,0.3-1.3,0.6c-0.3,0.3-0.4,0.7-0.3,1.1c0.1,0.3,0.2,0.6,0.5,0.7c0.3,0.2,0.6,0.3,0.9,0.3c0.3,0.1,0.8,0.1,1.5,0.2
					c0.8,0.1,1.6,0.2,2.1,0.3c0.6,0.1,1.1,0.4,1.5,0.8c0.5,0.4,0.8,1,0.9,1.7c0.1,0.7,0.1,1.3-0.2,1.9c-0.2,0.6-0.6,1.1-1.2,1.5
					c-0.6,0.4-1.3,0.7-2.1,0.9C191.3,279.3,190.5,279.3,189.7,279.1z"/>
				<path d="M204.5,264.5c0.7,0.3,1.4,0.7,1.9,1.4c0.5,0.7,0.9,1.6,1.1,2.6l1.4,7l-2.3,0.5l-1.3-6.6c-0.2-1.1-0.6-1.8-1.2-2.3
					c-0.6-0.5-1.3-0.6-2.2-0.4c-0.9,0.2-1.5,0.6-1.9,1.3c-0.4,0.7-0.5,1.5-0.3,2.6l1.3,6.6l-2.3,0.5l-3.2-15.9l2.3-0.5l1.1,5.4
					c0.3-0.6,0.7-1.1,1.2-1.5c0.5-0.4,1.2-0.7,1.9-0.8C202.9,264.2,203.7,264.3,204.5,264.5z"/>
				<path d="M224.7,272.4l-6.7-5.6l1.3,6.7L217,274l-3-15l2.3-0.5l1.4,6.8l4-7.9l2.9-0.6l-4.5,8.7l7.6,6.2L224.7,272.4z"/>
				<path d="M237.3,257.5l2.4,11.9l-2.3,0.5l-0.3-1.4c-0.3,0.6-0.7,1-1.2,1.4c-0.5,0.4-1.1,0.7-1.8,0.8c-0.9,0.2-1.7,0.1-2.4-0.1
					c-0.8-0.2-1.4-0.7-2-1.4c-0.5-0.7-0.9-1.6-1.1-2.6l-1.4-7l2.3-0.5l1.3,6.6c0.2,1.1,0.6,1.8,1.2,2.3c0.6,0.5,1.3,0.6,2.2,0.4
					c0.9-0.2,1.5-0.6,1.9-1.3c0.4-0.7,0.5-1.5,0.3-2.6L235,258L237.3,257.5z"/>
				<path d="M245.8,262l6.3,4.9l-3.1,0.6l-5.1-4.3l1,5.1l-2.3,0.5l-3.2-15.9l2.3-0.5l1.9,9.3l3-6l3.2-0.6L245.8,262z"/>
				<path d="M255,254.3c0.5-0.4,1.1-0.7,1.9-0.9l0.5,2.5l-0.6,0.1c-0.9,0.2-1.5,0.6-1.9,1.1c-0.4,0.6-0.4,1.5-0.2,2.7l1.3,6.2
					l-2.3,0.5l-2.4-11.9l2.3-0.5l0.3,1.7C254.2,255.3,254.5,254.7,255,254.3z"/>
				<path d="M270.4,258l-8.4,1.7c0.3,0.9,0.7,1.6,1.4,2.1c0.7,0.5,1.5,0.6,2.3,0.4c1.2-0.2,2-1,2.3-2.2l2.5-0.5
					c-0.1,1.2-0.5,2.2-1.3,3c-0.7,0.9-1.7,1.4-3,1.7c-1.1,0.2-2,0.1-3-0.2c-0.9-0.3-1.7-0.9-2.4-1.8c-0.7-0.8-1.1-1.9-1.4-3.1
					c-0.2-1.2-0.2-2.3,0-3.4c0.3-1,0.8-1.9,1.5-2.5c0.7-0.7,1.6-1.1,2.7-1.3c1-0.2,2-0.2,2.9,0.2c0.9,0.3,1.7,0.9,2.3,1.7
					c0.6,0.8,1.1,1.8,1.3,2.9C270.4,257.2,270.4,257.6,270.4,258z M267.7,256.5c-0.2-0.9-0.6-1.6-1.3-2c-0.7-0.4-1.5-0.6-2.3-0.4
					c-0.8,0.2-1.4,0.6-1.9,1.2s-0.6,1.4-0.6,2.4L267.7,256.5z"/>
				<path d="M274.4,252.1l1.3,6.6c0.1,0.4,0.2,0.7,0.5,0.9c0.2,0.2,0.6,0.2,1,0.1l1.4-0.3l0.4,2l-1.8,0.4c-1,0.2-1.9,0.1-2.5-0.3
					c-0.7-0.4-1.1-1.2-1.3-2.4l-1.3-6.6l-1.3,0.3l-0.4-2l1.3-0.3l-0.6-3l2.3-0.5l0.6,3l2.7-0.5l0.4,2L274.4,252.1z"/>
				<path d="M278.5,247.1c-0.3-0.2-0.6-0.6-0.6-1c-0.1-0.4,0-0.8,0.2-1.2c0.2-0.4,0.5-0.6,0.9-0.7c0.4-0.1,0.8,0,1.1,0.2
					c0.3,0.2,0.6,0.6,0.6,1c0.1,0.4,0,0.8-0.2,1.2c-0.2,0.4-0.5,0.6-0.9,0.7C279.2,247.5,278.9,247.4,278.5,247.1z M281.1,248.7
					l2.4,11.9l-2.3,0.5l-2.4-11.9L281.1,248.7z"/>
				<g>
					
						<ellipse transform="matrix(0.9804 -0.1972 0.1972 0.9804 -53.9124 29.2873)" class="st6" cx="120.1" cy="285.3" rx="21.9" ry="23.5"/>
					<text transform="matrix(0.9106 -0.1832 0.1972 0.9804 106.6981 297.3613)" class="st1 st5">AK</text>
				</g>
			</g>
			<g>
				<path d="M162.9,342l4.7-0.9l0.4,2l-7,1.4l-3-15l2.3-0.5L162.9,342z"/>
				<path d="M168,333.5c0.3-1,0.8-1.9,1.4-2.5c0.7-0.7,1.5-1.1,2.5-1.3c0.9-0.2,1.7-0.1,2.4,0.1c0.7,0.2,1.3,0.6,1.8,1.1l-0.3-1.7
					l2.3-0.5l2.4,11.9l-2.3,0.5l-0.4-1.8c-0.3,0.6-0.7,1.2-1.3,1.7c-0.6,0.5-1.3,0.8-2.2,1c-0.9,0.2-1.9,0.1-2.8-0.3
					c-0.9-0.4-1.7-1-2.3-1.8c-0.6-0.8-1.1-1.9-1.3-3.1C167.7,335.6,167.7,334.5,168,333.5z M176,333c-0.4-0.5-0.9-0.9-1.5-1.1
					c-0.6-0.2-1.1-0.3-1.7-0.1c-0.6,0.1-1.1,0.4-1.5,0.8c-0.4,0.4-0.8,0.9-1,1.6c-0.2,0.7-0.2,1.4,0,2.2c0.2,0.8,0.5,1.5,0.9,2.1
					c0.4,0.6,0.9,0.9,1.5,1.2c0.6,0.2,1.2,0.3,1.7,0.2c0.6-0.1,1.1-0.4,1.5-0.8c0.4-0.4,0.8-1,1-1.6c0.2-0.7,0.2-1.4,0-2.2
					C176.8,334.2,176.5,333.5,176,333z"/>
				<path d="M186.6,333.1l6.3,4.9l-3.1,0.6l-5.1-4.3l1,5.1l-2.3,0.5l-3.2-15.9l2.3-0.5l1.9,9.3l3-6l3.2-0.6L186.6,333.1z"/>
				<path d="M196.1,337c-0.8-0.2-1.4-0.5-1.9-1c-0.5-0.5-0.9-1.1-1-1.8l2.4-0.5c0.1,0.5,0.4,0.9,0.9,1.1c0.5,0.3,1,0.3,1.6,0.2
					c0.6-0.1,1.1-0.4,1.4-0.7c0.3-0.3,0.4-0.7,0.3-1.1c-0.1-0.4-0.4-0.7-0.8-0.9c-0.4-0.1-1.1-0.2-2-0.3c-0.9-0.1-1.6-0.2-2.2-0.3
					c-0.6-0.1-1.1-0.4-1.6-0.8c-0.5-0.4-0.8-1-0.9-1.8c-0.1-0.6-0.1-1.2,0.2-1.8c0.2-0.6,0.7-1.1,1.2-1.5c0.6-0.4,1.3-0.7,2.1-0.9
					c1.3-0.3,2.3-0.1,3.2,0.4c0.9,0.5,1.5,1.4,1.8,2.5l-2.3,0.5c-0.1-0.5-0.4-0.9-0.9-1.2c-0.4-0.2-0.9-0.3-1.6-0.2
					c-0.6,0.1-1,0.3-1.3,0.6c-0.3,0.3-0.4,0.7-0.3,1.1c0.1,0.3,0.2,0.6,0.5,0.7c0.3,0.2,0.6,0.3,0.9,0.3c0.3,0.1,0.8,0.1,1.5,0.2
					c0.8,0.1,1.6,0.2,2.1,0.3c0.6,0.1,1.1,0.4,1.5,0.8c0.5,0.4,0.8,1,0.9,1.7c0.1,0.7,0.1,1.3-0.2,1.9c-0.2,0.6-0.6,1.1-1.2,1.5
					c-0.6,0.4-1.3,0.7-2.1,0.9C197.7,337.2,196.9,337.2,196.1,337z"/>
				<path d="M210.9,322.4c0.7,0.3,1.4,0.7,1.9,1.4c0.5,0.7,0.9,1.6,1.1,2.6l1.4,7l-2.3,0.5l-1.3-6.6c-0.2-1.1-0.6-1.8-1.2-2.3
					c-0.6-0.5-1.3-0.6-2.2-0.4c-0.9,0.2-1.5,0.6-1.9,1.3c-0.4,0.7-0.5,1.5-0.3,2.6l1.3,6.6l-2.3,0.5l-3.2-15.9l2.3-0.5l1.1,5.4
					c0.3-0.6,0.7-1.1,1.2-1.5c0.5-0.4,1.2-0.7,1.9-0.8C209.3,322.1,210.1,322.2,210.9,322.4z"/>
				<path d="M225.7,319l-3.3,18.8l-2.4,0.5l1.1-6.2l-6.7-10.8l2.5-0.5l4.9,8.4l1.4-9.7L225.7,319z"/>
				<path d="M227.9,321.4c0.3-1,0.8-1.9,1.4-2.5c0.7-0.7,1.5-1.1,2.5-1.3c0.9-0.2,1.7-0.1,2.4,0.1c0.7,0.2,1.3,0.6,1.8,1.1l-0.3-1.7
					l2.3-0.5l2.4,11.9l-2.3,0.5l-0.4-1.8c-0.3,0.6-0.7,1.2-1.3,1.7c-0.6,0.5-1.3,0.8-2.2,1c-0.9,0.2-1.9,0.1-2.8-0.3
					c-0.9-0.4-1.7-1-2.3-1.8c-0.6-0.8-1.1-1.9-1.3-3.1C227.6,323.5,227.7,322.4,227.9,321.4z M236,320.9c-0.4-0.5-0.9-0.9-1.5-1.1
					c-0.6-0.2-1.1-0.3-1.7-0.1c-0.6,0.1-1.1,0.4-1.5,0.8c-0.4,0.4-0.8,0.9-1,1.6c-0.2,0.7-0.2,1.4,0,2.2c0.2,0.8,0.5,1.5,0.9,2.1
					c0.4,0.6,0.9,0.9,1.5,1.2c0.6,0.2,1.2,0.3,1.7,0.2c0.6-0.1,1.1-0.4,1.5-0.8c0.4-0.4,0.8-1,1-1.6c0.2-0.7,0.2-1.4,0-2.2
					C236.7,322.1,236.4,321.4,236,320.9z"/>
				<g>
					
						<ellipse transform="matrix(0.9804 -0.1972 0.1972 0.9804 -64.8737 32.6514)" class="st7" cx="131.5" cy="342" rx="21.9" ry="23.5"/>
					<text transform="matrix(0.9106 -0.1832 0.1972 0.9804 121.1846 352.7055)" class="st1 st5">LS</text>
				</g>
			</g>
			<g>
				<path d="M180.2,396.5l-5.8,1.2L174,401l-2.4,0.5l2-16l2.6-0.5l8,14l-2.4,0.5L180.2,396.5z M179.2,394.7l-3.7-6.5l-0.9,7.4
					L179.2,394.7z"/>
				<path d="M187.9,386.2c0.6-0.5,1.3-0.8,2.1-1c1-0.2,1.9-0.1,2.8,0.2c0.9,0.3,1.7,0.9,2.3,1.8c0.6,0.8,1.1,1.8,1.3,3
					c0.2,1.2,0.2,2.3,0,3.3c-0.3,1-0.7,1.9-1.4,2.6c-0.7,0.7-1.5,1.1-2.5,1.3c-0.9,0.2-1.6,0.1-2.4-0.1c-0.7-0.2-1.3-0.6-1.8-1.1
					l0.3,1.7l-2.3,0.5l-3.2-15.9l2.3-0.5l1.2,5.8C186.9,387.3,187.3,386.7,187.9,386.2z M193.3,388.6c-0.4-0.5-0.9-0.9-1.5-1.1
					c-0.6-0.2-1.2-0.2-1.7-0.1c-0.6,0.1-1.1,0.4-1.5,0.8c-0.5,0.4-0.8,1-1,1.6c-0.2,0.7-0.2,1.4,0,2.2c0.2,0.8,0.5,1.5,0.9,2
					c0.4,0.5,0.9,0.9,1.5,1.1c0.6,0.2,1.2,0.3,1.7,0.1c0.6-0.1,1.1-0.4,1.6-0.8c0.4-0.4,0.8-1,1-1.7c0.2-0.7,0.2-1.4,0-2.2
					C194,389.9,193.7,389.2,193.3,388.6z"/>
				<path d="M205.6,382.7c0.7,0.3,1.4,0.7,1.9,1.4c0.5,0.7,0.9,1.6,1.1,2.6l1.4,7l-2.3,0.5l-1.3-6.6c-0.2-1.1-0.6-1.8-1.2-2.3
					s-1.3-0.6-2.2-0.4c-0.9,0.2-1.5,0.6-1.9,1.3c-0.4,0.7-0.5,1.5-0.3,2.6l1.3,6.6l-2.3,0.5l-3.2-15.9l2.3-0.5l1.1,5.4
					c0.3-0.6,0.7-1.1,1.2-1.5c0.5-0.4,1.2-0.7,1.9-0.8C204.1,382.4,204.9,382.4,205.6,382.7z"/>
				<path d="M211,384c0.3-1,0.8-1.9,1.4-2.5c0.7-0.7,1.5-1.1,2.5-1.3c0.9-0.2,1.7-0.1,2.4,0.1c0.7,0.2,1.3,0.6,1.8,1.1l-0.3-1.7
					l2.3-0.5l2.4,11.9l-2.3,0.5l-0.4-1.8c-0.3,0.6-0.7,1.2-1.3,1.7c-0.6,0.5-1.3,0.8-2.2,1c-0.9,0.2-1.9,0.1-2.8-0.3
					c-0.9-0.4-1.7-1-2.3-1.8s-1.1-1.9-1.3-3.1C210.7,386.1,210.7,385,211,384z M219.1,383.5c-0.4-0.5-0.9-0.9-1.5-1.1
					c-0.6-0.2-1.1-0.3-1.7-0.1c-0.6,0.1-1.1,0.4-1.5,0.8c-0.4,0.4-0.8,0.9-1,1.6c-0.2,0.7-0.2,1.4,0,2.2c0.2,0.8,0.5,1.5,0.9,2.1
					c0.4,0.6,0.9,0.9,1.5,1.2c0.6,0.2,1.2,0.3,1.7,0.2c0.6-0.1,1.1-0.4,1.5-0.8c0.4-0.4,0.8-1,1-1.6c0.2-0.7,0.2-1.4,0-2.2
					C219.8,384.7,219.5,384,219.1,383.5z"/>
				<path d="M234,376.5l-3.3,18.8l-2.4,0.5l1.1-6.2l-6.7-10.8l2.5-0.5l4.9,8.4l1.4-9.7L234,376.5z"/>
				<path d="M245.3,386.2c-0.8-0.2-1.5-0.6-2.1-1.1c-0.6-0.6-0.9-1.3-1.1-2.1l2.4-0.5c0.2,0.6,0.5,1.1,1,1.5
					c0.5,0.3,1.1,0.4,1.9,0.3c0.8-0.2,1.4-0.5,1.7-1c0.4-0.5,0.5-1.1,0.3-1.7c-0.1-0.5-0.3-0.9-0.7-1.1c-0.3-0.3-0.7-0.4-1.2-0.5
					c-0.4-0.1-1-0.2-1.8-0.2c-1-0.1-1.7-0.2-2.4-0.3c-0.6-0.2-1.2-0.5-1.7-0.9c-0.5-0.5-0.9-1.2-1.1-2.1c-0.2-0.9-0.1-1.7,0.1-2.4
					s0.7-1.3,1.4-1.8c0.7-0.5,1.4-0.8,2.4-1c1.3-0.3,2.5-0.1,3.5,0.4c1,0.6,1.7,1.5,2,2.7l-2.5,0.5c-0.1-0.5-0.5-1-1-1.3
					c-0.5-0.3-1.1-0.4-1.9-0.2c-0.7,0.1-1.2,0.4-1.5,0.9c-0.3,0.4-0.4,1-0.3,1.7c0.1,0.5,0.3,0.8,0.6,1.1c0.3,0.2,0.7,0.4,1.1,0.5
					c0.4,0.1,1,0.2,1.8,0.2c1,0.1,1.8,0.2,2.4,0.4c0.6,0.2,1.2,0.5,1.7,1c0.5,0.5,0.9,1.2,1.1,2.2c0.2,0.8,0.1,1.5-0.1,2.3
					c-0.2,0.8-0.7,1.4-1.3,2c-0.6,0.6-1.5,0.9-2.4,1.1C247,386.4,246.1,386.4,245.3,386.2z"/>
				<path d="M261.1,371.5c0.7,0.3,1.4,0.7,1.9,1.4c0.5,0.7,0.9,1.6,1.1,2.6l1.4,7l-2.3,0.5l-1.3-6.6c-0.2-1.1-0.6-1.8-1.2-2.3
					c-0.6-0.5-1.3-0.6-2.2-0.4c-0.9,0.2-1.5,0.6-1.9,1.3c-0.4,0.7-0.5,1.5-0.3,2.6l1.3,6.6l-2.3,0.5l-3.2-15.9l2.3-0.5l1.1,5.4
					c0.3-0.6,0.7-1.1,1.2-1.5c0.5-0.4,1.2-0.7,1.9-0.8C259.5,371.2,260.3,371.2,261.1,371.5z"/>
				<path d="M266.5,372.8c0.3-1,0.8-1.9,1.4-2.5c0.7-0.7,1.5-1.1,2.5-1.3c0.9-0.2,1.7-0.1,2.4,0.1c0.7,0.2,1.3,0.6,1.8,1.1l-0.3-1.7
					l2.3-0.5l2.4,11.9l-2.3,0.5l-0.4-1.8c-0.3,0.6-0.7,1.2-1.3,1.7c-0.6,0.5-1.3,0.8-2.2,1c-0.9,0.2-1.9,0.1-2.8-0.3
					c-0.9-0.4-1.7-1-2.3-1.8c-0.6-0.8-1.1-1.9-1.3-3.1C266.2,374.9,266.2,373.8,266.5,372.8z M274.6,372.3c-0.4-0.5-0.9-0.9-1.5-1.1
					c-0.6-0.2-1.1-0.3-1.7-0.1c-0.6,0.1-1.1,0.4-1.5,0.8c-0.4,0.4-0.8,0.9-1,1.6c-0.2,0.7-0.2,1.4,0,2.2c0.2,0.8,0.5,1.5,0.9,2.1
					c0.4,0.6,0.9,0.9,1.5,1.2c0.6,0.2,1.2,0.3,1.7,0.2c0.6-0.1,1.1-0.4,1.5-0.8c0.4-0.4,0.8-1,1-1.6c0.2-0.7,0.2-1.4,0-2.2
					C275.3,373.5,275,372.9,274.6,372.3z"/>
				<path d="M283.3,367c0.5-0.4,1.1-0.8,1.9-0.9l0.5,2.5l-0.6,0.1c-0.9,0.2-1.5,0.6-1.9,1.1c-0.4,0.6-0.4,1.5-0.2,2.7l1.3,6.2
					l-2.3,0.5l-2.4-11.9l2.3-0.5l0.3,1.7C282.4,368,282.8,367.4,283.3,367z"/>
				<path d="M303,363.1c0.8,0.2,1.4,0.7,2,1.4s0.9,1.6,1.1,2.6l1.4,7l-2.3,0.5l-1.3-6.6c-0.2-1.1-0.6-1.8-1.2-2.3
					c-0.6-0.5-1.3-0.6-2.2-0.4s-1.5,0.6-1.9,1.3c-0.4,0.7-0.5,1.5-0.3,2.6l1.3,6.6l-2.3,0.5l-1.3-6.6c-0.2-1.1-0.6-1.8-1.2-2.3
					c-0.6-0.5-1.3-0.6-2.2-0.4s-1.5,0.6-1.9,1.3c-0.4,0.7-0.5,1.5-0.3,2.6l1.3,6.6l-2.3,0.5l-2.4-11.9l2.3-0.5l0.3,1.4
					c0.3-0.6,0.7-1,1.2-1.4c0.5-0.4,1.1-0.6,1.8-0.8c0.9-0.2,1.7-0.1,2.5,0.1c0.8,0.3,1.4,0.7,2,1.4c0.2-0.8,0.6-1.5,1.2-2
					c0.6-0.6,1.3-0.9,2.2-1.1C301.4,362.8,302.3,362.8,303,363.1z"/>
				<path d="M308.5,364.4c0.3-1,0.8-1.9,1.4-2.5c0.7-0.7,1.5-1.1,2.5-1.3c0.9-0.2,1.7-0.1,2.4,0.1c0.7,0.2,1.3,0.6,1.8,1.1l-0.3-1.7
					l2.3-0.5l2.4,11.9l-2.3,0.5l-0.4-1.8c-0.3,0.6-0.7,1.2-1.3,1.7s-1.3,0.8-2.2,1c-0.9,0.2-1.9,0.1-2.8-0.3c-0.9-0.4-1.7-1-2.3-1.8
					s-1.1-1.9-1.3-3.1C308.2,366.5,308.3,365.4,308.5,364.4z M316.6,363.9c-0.4-0.5-0.9-0.9-1.5-1.1c-0.6-0.2-1.1-0.3-1.7-0.1
					c-0.6,0.1-1.1,0.4-1.5,0.8c-0.4,0.4-0.8,0.9-1,1.6c-0.2,0.7-0.2,1.4,0,2.2c0.2,0.8,0.5,1.5,0.9,2.1c0.4,0.6,0.9,0.9,1.5,1.2
					c0.6,0.2,1.2,0.3,1.7,0.2c0.6-0.1,1.1-0.4,1.5-0.8c0.4-0.4,0.8-1,1-1.6c0.2-0.7,0.2-1.4,0-2.2
					C317.3,365.1,317,364.4,316.6,363.9z"/>
				<g>
					
						<ellipse transform="matrix(0.9804 -0.1972 0.1972 0.9804 -75.7893 36.0015)" class="st8" cx="142.9" cy="398.5" rx="21.9" ry="23.5"/>
					<text transform="matrix(0.9106 -0.1832 0.1972 0.9804 129.8844 410.9003)" class="st1 st5">AS</text>
				</g>
			</g>
		</g>
	</g>
</g>
</svg>
